<svg width="16" height="16" viewBox="0 0 16 16" fill="none" xmlns="http://www.w3.org/2000/svg">
<path d="M13.6357 2.32349C12.1312 0.82605 10.1297 0.000854494 7.99963 0C5.8743 0 3.86969 0.824463 2.35529 2.32153C0.838208 3.82117 0.001955 5.81409 0 7.9259V7.92834V7.92981C0.000244376 9.20801 0.336383 10.4974 0.974447 11.6744L0.0218716 16L4.40145 15.0048C5.51067 15.5632 6.74831 15.8577 7.99658 15.8582H7.99976C10.1247 15.8582 12.1293 15.0336 13.644 13.5364C15.1624 12.0355 15.999 10.0452 16 7.93201C16.0006 5.83374 15.1611 3.84192 13.6357 2.32349ZM7.99963 14.6094H7.99682C6.87599 14.6089 5.76543 14.3278 4.78536 13.7961L4.57825 13.6838L1.66603 14.3456L2.2986 11.4735L2.17665 11.2634C1.57036 10.2189 1.24998 9.0658 1.24998 7.92847C1.2523 4.24719 4.27987 1.24878 7.99939 1.24878C9.79628 1.24951 11.4847 1.94543 12.7535 3.20813C14.0415 4.49036 14.7505 6.16785 14.7499 7.93164C14.7484 11.6138 11.7203 14.6094 7.99963 14.6094Z" fill="#262525"/>
</svg>
