<svg width="16" height="16" viewBox="0 0 16 16" fill="none" xmlns="http://www.w3.org/2000/svg">
<path d="M11.9997 0H3.9999C1.80015 0 0 1.80015 0 3.9999V12.0001C0 14.1993 1.80015 16 3.9999 16H11.9997C14.1995 16 15.9996 14.1993 15.9996 12.0001V3.9999C15.9996 1.80015 14.1995 0 11.9997 0ZM14.6662 12.0001C14.6662 13.4701 13.4705 14.6666 11.9997 14.6666H3.9999C2.52974 14.6666 1.33337 13.4701 1.33337 12.0001V3.9999C1.33337 2.52955 2.52974 1.33337 3.9999 1.33337H11.9997C13.4705 1.33337 14.6662 2.52955 14.6662 3.9999V12.0001Z" fill="#262525"/>
<path d="M12.333 4.66655C12.8853 4.66655 13.333 4.21884 13.333 3.66657C13.333 3.1143 12.8853 2.6666 12.333 2.6666C11.7807 2.6666 11.333 3.1143 11.333 3.66657C11.333 4.21884 11.7807 4.66655 12.333 4.66655Z" fill="#262525"/>
<path d="M7.9999 3.99991C5.79035 3.99991 4 5.79045 4 7.99981C4 10.2084 5.79035 12.0001 7.9999 12.0001C10.2088 12.0001 11.9998 10.2084 11.9998 7.99981C11.9998 5.79045 10.2088 3.99991 7.9999 3.99991ZM7.9999 10.6667C6.52732 10.6667 5.33337 9.47278 5.33337 7.99981C5.33337 6.52684 6.52732 5.33327 7.9999 5.33327C9.47248 5.33327 10.6664 6.52684 10.6664 7.99981C10.6664 9.47278 9.47248 10.6667 7.9999 10.6667Z" fill="#262525"/>
</svg>
